Coordinates
version=1
nRows=8
nColumns=63
inDegrees=yes

Units are S.I. units (second, meters, Newtons, ...)
If the header above contains a line with 'inDegrees', this indicates whether rotational values are in degrees (yes) or radians (no).

endheader
time	pelvis_tilt	pelvis_list	pelvis_rotation	pelvis_tx	pelvis_ty	pelvis_tz	hip_flexion_r	hip_adduction_r	hip_rotation_r	knee_angle_r	knee_angle_r_beta	ankle_angle_r	subtalar_angle_r	mtp_angle_r	hip_flexion_l	hip_adduction_l	hip_rotation_l	knee_angle_l	knee_angle_l_beta	ankle_angle_l	subtalar_angle_l	mtp_angle_l	L5_S1_Flex_Ext	L5_S1_Lat_Bending	L5_S1_axial_rotation	L4_L5_Flex_Ext	L4_L5_Lat_Bending	L4_L5_axial_rotation	L3_L4_Flex_Ext	L3_L4_Lat_Bending	L3_L4_axial_rotation	L2_L3_Flex_Ext	L2_L3_Lat_Bending	L2_L3_axial_rotation	L1_L2_Flex_Ext	L1_L2_Lat_Bending	L1_L2_axial_rotation	L1_T12_Flex_Ext	L1_T12_Lat_Bending	L1_T12_axial_rotation	Abs_r3	Abs_r2	Abs_r1	Abs_t1	Abs_t2	neck_flexion	neck_bending	neck_rotation	arm_flex_r	arm_add_r	arm_rot_r	elbow_flex_r	pro_sup_r	wrist_flex_r	wrist_dev_r	arm_flex_l	arm_add_l	arm_rot_l	elbow_flex_l	pro_sup_l	wrist_flex_l	wrist_dev_l
4.925000	-3.176787	-25.041516	92.577313	0.243675	0.314416	0.631229	9.723084	-3.767421	10.626904	0.413462	0.007216	12.292209	-7.969892	0.000000	9.931585	4.308394	-6.748758	2.441064	0.042605	16.228148	-7.828107	0.000000	0.142438	-0.544627	1.506130	0.264522	-0.724353	1.600263	0.234012	-1.324205	1.600263	0.162793	-1.324205	1.317864	0.132268	-1.110603	1.223731	0.081389	-0.843627	1.129598	1.017422	-6.160925	8.376644	0.000000	0.000000	26.936813	2.315117	1.421308	13.753452	-8.536507	49.527288	25.889976	68.900329	-7.735428	-3.468234	10.374666	-9.436457	44.443869	45.310041	83.474391	-3.332778	9.993849
4.950000	-3.077867	-23.871205	92.609776	0.243264	0.317027	0.629330	8.349464	-3.642329	10.422730	0.277714	0.004847	12.033301	-7.475461	0.000000	8.064108	4.194331	-7.189913	1.309056	0.022847	16.019947	-6.641487	0.000000	0.157218	-0.544866	1.570949	0.291970	-0.724672	1.669134	0.258294	-1.324787	1.669134	0.179685	-1.324787	1.374581	0.145993	-1.111091	1.276396	0.089835	-0.843997	1.178212	1.122995	-6.163632	8.737149	0.000000	0.000000	26.980758	2.274306	1.635995	14.345510	-9.177244	44.649688	26.532136	71.841578	-8.473329	-3.128924	10.208514	-10.234947	40.766710	46.704882	86.052970	-3.095881	12.766522
4.975000	-3.032009	-22.801556	92.789930	0.242618	0.319369	0.627946	7.136063	-3.583146	10.066429	0.274578	0.004792	11.966675	-6.932483	0.000000	6.493287	4.122142	-7.479494	0.502808	0.008776	15.842036	-5.583970	0.000000	0.169089	-0.554022	1.614784	0.314016	-0.736849	1.715708	0.277797	-1.347048	1.715708	0.193252	-1.347048	1.412936	0.157016	-1.129761	1.312012	0.096618	-0.858179	1.211088	1.207789	-6.267203	8.980942	0.000000	0.000000	27.065418	2.102449	1.373785	14.973043	-9.760270	39.596290	27.503812	75.290443	-9.036566	-2.784083	10.238356	-10.918942	37.687663	47.969683	88.461819	-2.793931	15.435344
5.000000	-3.047317	-21.823306	93.154057	0.241713	0.321431	0.626999	6.025683	-3.598547	9.584300	0.344964	0.006021	12.073171	-6.428357	0.000000	5.194774	4.104274	-7.605027	0.012291	0.000215	15.711856	-4.630045	0.000000	0.177279	-0.575187	1.632113	0.329224	-0.764998	1.734120	0.291251	-1.398509	1.734120	0.202612	-1.398509	1.428099	0.164621	-1.172921	1.326092	0.101297	-0.890964	1.224085	1.266284	-6.506628	9.077322	0.000000	0.000000	27.187141	1.859579	0.614977	15.665335	-10.288697	35.060787	28.824525	78.587240	-9.375684	-2.392521	10.465868	-11.482033	35.437002	49.081857	90.082132	-2.463350	17.779450
5.025000	-3.106641	-20.922046	93.741883	0.240434	0.323219	0.626381	4.955517	-3.690877	8.870729	0.426535	0.007444	12.365146	-5.845682	0.000000	4.126828	4.145208	-7.534780	-0.200374	-0.003497	15.660944	-3.754698	0.000000	0.181833	-0.605992	1.614364	0.337682	-0.805969	1.715261	0.298733	-1.473409	1.715261	0.207817	-1.473409	1.412568	0.168850	-1.235739	1.311670	0.103899	-0.938682	1.210773	1.298813	-6.855102	8.978607	0.000000	0.000000	27.325565	1.612810	-0.551990	16.397519	-10.750217	31.288547	30.456477	81.634647	-9.232556	-1.793684	10.832390	-11.900072	34.030141	50.046221	90.611132	-2.195569	19.662174
5.050000	-3.220811	-20.080806	94.507540	0.238756	0.324750	0.625950	3.895888	-3.845602	8.025416	0.504360	0.008803	12.794079	-5.288647	0.000000	3.223111	4.239258	-7.271929	-0.207349	-0.003619	15.699540	-2.967795	0.000000	0.182882	-0.645080	1.564799	0.339631	-0.857957	1.662599	0.300458	-1.568448	1.662599	0.209016	-1.568448	1.369199	0.169825	-1.315448	1.271399	0.104499	-0.999229	1.173599	1.306311	-7.297277	8.702943	0.000000	0.000000	27.429776	1.372934	-2.000118	17.204334	-11.107696	28.863115	32.338016	83.521308	-8.635080	-0.777308	11.343112	-12.177222	33.746100	50.888609	89.290835	-2.124493	21.053964
5.075000	-3.339430	-19.296315	95.496717	0.236498	0.326041	0.625596	2.822905	-4.035575	6.975573	0.551120	0.009619	13.327474	-4.717850	0.000000	2.435059	4.366830	-6.761523	-0.091540	-0.001598	15.818793	-2.248725	0.000000	0.182358	-0.683701	1.475833	0.338657	-0.909322	1.568073	0.299596	-1.662351	1.568073	0.208417	-1.662351	1.291354	0.169338	-1.394203	1.199115	0.104199	-1.059053	1.106875	1.302564	-7.734164	8.208143	0.000000	0.000000	27.467360	1.175319	-3.505163	18.052060	-11.327160	28.086021	34.316220	83.691839	-7.539231	0.819694	11.941944	-12.286299	34.486257	51.572309	86.369326	-2.454500	21.888741
5.100000	-3.433381	-18.560023	96.662911	0.233672	0.327114	0.625263	1.752281	-4.216687	5.717233	0.586172	0.010231	13.937819	-4.089211	0.000000	1.712026	4.489469	-5.948946	0.064356	0.001123	15.978659	-1.716624	0.000000	0.179947	-0.716136	1.356763	0.334179	-0.952461	1.441561	0.295635	-1.741213	1.441561	0.205661	-1.741213	1.187168	0.167099	-1.460345	1.102370	0.102822	-1.109295	1.017572	1.285343	-8.101075	7.545910	0.000000	0.000000	27.459564	1.009436	-4.921970	18.860506	-11.407705	28.908087	36.281392	83.150376	-5.808703	2.639289	12.572382	-12.234252	36.145474	52.091242	82.144462	-3.111503	22.339341
